HIERARCHY
ROOT Hips
{
  OFFSET 0.000000 0.000000 0.000000
  CHANNELS 6 Xposition Yposition Zposition Zrotation Yrotation Xrotation
  JOINT Spine
  {
    OFFSET -0.000883 2.120903 -0.028059
    CHANNELS 3 Zrotation Yrotation Xrotation
    JOINT Spine1
    {
      OFFSET -0.002865 2.096658 0.129739
      CHANNELS 3 Zrotation Yrotation Xrotation
      JOINT Spine2
      {
        OFFSET -0.000072 2.101496 0.140380
        CHANNELS 3 Zrotation Yrotation Xrotation
        JOINT Neck
        {
          OFFSET 0.073278 1.835262 0.072900
          CHANNELS 3 Zrotation Yrotation Xrotation
          JOINT Head
          {
            OFFSET -0.033980 1.851628 -0.175733
            CHANNELS 3 Zrotation Yrotation Xrotation
            End Site
            {
              OFFSET 0 0 0
            }
          }
        }
        JOINT LeftShoulder
        {
          OFFSET 3.021134 1.180177 0.406022
          CHANNELS 3 Zrotation Yrotation Xrotation
          JOINT LeftArm
          {
            OFFSET 4.585380 -0.000000 -0.000000
            CHANNELS 3 Zrotation Yrotation Xrotation
            JOINT LeftForeArm
            {
              OFFSET 2.689350 -0.000000 -0.000000
              CHANNELS 3 Zrotation Yrotation Xrotation
              JOINT LeftHand
              {
                OFFSET 0.585058 -0.000000 -0.000000
                CHANNELS 3 Zrotation Yrotation Xrotation
                JOINT LeftHandIndex1
                {
                  OFFSET 0.471689 -0.000000 -0.000000
                  CHANNELS 3 Zrotation Yrotation Xrotation
                  End Site
                  {
                    OFFSET 0 0 0
                  }
                }
              }
            }
          }
        }
        JOINT RightShoulder
        {
          OFFSET -2.950738 1.188427 0.314298
          CHANNELS 3 Zrotation Yrotation Xrotation
          JOINT RightArm
          {
            OFFSET -4.474500 -0.000000 -0.000000
            CHANNELS 3 Zrotation Yrotation Xrotation
            JOINT RightForeArm
            {
              OFFSET -2.938960 -0.000000 -0.000000
              CHANNELS 3 Zrotation Yrotation Xrotation
              JOINT RightHand
              {
                OFFSET -0.405092 -0.000000 -0.000000
                CHANNELS 3 Zrotation Yrotation Xrotation
                JOINT RightHandIndex1
                {
                  OFFSET -0.326596 -0.000000 -0.000000
                  CHANNELS 3 Zrotation Yrotation Xrotation
                  End Site
                  {
                    OFFSET 0 0 0
                  }
                }
              }
            }
          }
        }
      }
    }
  }
  JOINT LeftUpLeg
  {
    OFFSET 2.251771 -6.186694 0.000000
    CHANNELS 3 Zrotation Yrotation Xrotation
    JOINT LeftLeg
    {
      OFFSET 2.266012 -6.225823 0.000000
      CHANNELS 3 Zrotation Yrotation Xrotation
      JOINT LeftFoot
      {
        OFFSET 0.237014 -0.651191 2.158476
        CHANNELS 3 Zrotation Yrotation Xrotation
        JOINT LeftToeBase
        {
          OFFSET 0.000000 -0.000000 1.129490
          CHANNELS 3 Zrotation Yrotation Xrotation
          End Site
          {
            OFFSET 0 0 0
          }
        }
      }
    }
  }
  JOINT RightUpLeg
  {
    OFFSET -2.280357 -6.265234 0.000000
    CHANNELS 3 Zrotation Yrotation Xrotation
    JOINT RightLeg
    {
      OFFSET -2.254897 -6.195283 0.000000
      CHANNELS 3 Zrotation Yrotation Xrotation
      JOINT RightFoot
      {
        OFFSET -0.283752 -0.779600 2.231370
        CHANNELS 3 Zrotation Yrotation Xrotation
        JOINT RightToeBase
        {
          OFFSET -0.000000 -0.000000 1.178990
          CHANNELS 3 Zrotation Yrotation Xrotation
          End Site
          {
            OFFSET 0 0 0
          }
        }
      }
    }
  }
}
MOTION
Frames: 8
Frame Time: 0.00833333
-0.029843 15.671200 3.635030 -4.686130 -13.775100 8.725560 -15.239300 -11.338400 -9.485790 0.000000 0.000000 27.352700 26.683900 0.000000 -24.226400 0.000000 0.000000 3.936990 19.522400 11.213400 -12.907800 0.000000 0.000000 23.431900 -17.770400 0.000000 -15.043500 0.000000 0.000000 0.721225 5.213090 -1.040730 -5.626640 0.816696 -1.523500 -7.517650 -2.082910 -1.023800 -4.783070 -0.678107 -5.022550 -10.707700 -1.782400 -3.475310 11.989200 0.000000 0.000000 0.000000 67.718700 16.885900 -49.818900 0.000000 0.000000 33.209600 12.110900 0.000000 -3.852740 0.000000 0.000000 7.125020 0.000000 0.000000 0.000000 -70.986800 -9.426570 -40.875500 0.000000 0.000000 31.396600 -11.116200 0.000000 -1.818290 0.000000 0.000000 7.125020
-0.026986 15.671700 3.634950 -4.699450 -13.746500 8.733880 -15.225600 -11.292700 -9.511550 0.000000 0.000000 27.362100 26.632000 0.000000 -24.194800 0.000000 0.000000 3.878810 19.525100 11.237600 -12.900500 0.000000 0.000000 23.416900 -17.812400 0.000000 -15.041300 0.000000 0.000000 0.705166 5.258020 -1.034660 -5.648840 0.795055 -1.519420 -7.480350 -2.131700 -1.022770 -4.733020 -0.680746 -5.029540 -10.717200 -1.759380 -3.480450 11.994700 -0.000000 -0.000000 0.000000 67.565600 16.967500 -49.829500 0.000000 0.000000 33.145700 11.768700 0.000000 -3.902700 0.000000 0.000000 7.125020 -0.000000 -0.000000 0.000000 -71.328300 -9.026820 -40.864800 0.000000 0.000000 31.264000 -10.742500 0.000000 -4.881410 0.000000 0.000000 7.125020
-0.024389 15.672500 3.633960 -4.651710 -13.721700 8.743710 -15.274500 -11.297900 -9.554760 0.000000 0.000000 27.369300 26.613400 0.000000 -24.178000 0.000000 0.000000 3.873280 19.458100 11.281200 -12.914900 0.000000 0.000000 23.406900 -17.864100 0.000000 -15.059300 0.000000 0.000000 0.865995 5.200530 -1.059380 -5.604650 0.800891 -1.547210 -7.512790 -2.092100 -1.035530 -4.792070 -0.699134 -5.020210 -10.712800 -1.752880 -3.476020 12.027200 0.000000 -0.000000 0.000000 67.354300 17.146700 -49.979300 0.000000 0.000000 33.071300 11.682100 0.000000 -3.890820 0.000000 0.000000 7.125020 0.000000 -0.000000 0.000000 -71.299900 -8.970350 -40.871100 0.000000 0.000000 30.931600 -9.118290 0.000000 -6.980380 0.000000 0.000000 7.125020
-0.022138 15.672800 3.632870 -4.673090 -13.705800 8.764260 -15.249300 -11.291100 -9.589900 0.000000 0.000000 27.379100 26.588800 0.000000 -24.171800 0.000000 0.000000 3.908870 19.490200 11.191400 -12.962600 0.000000 0.000000 23.395500 -17.907000 0.000000 -14.868100 0.000000 0.000000 0.158804 5.242160 -1.046180 -5.614090 0.784184 -1.532150 -7.491780 -2.133200 -1.029570 -4.765440 -0.660903 -5.023400 -10.725200 -1.757220 -3.477420 12.031200 0.000000 0.000000 0.000000 67.220700 17.277200 -49.961800 0.000000 0.000000 33.031300 11.983600 0.000000 -3.826320 0.000000 0.000000 7.125020 0.000000 0.000000 0.000000 -71.055500 -9.394700 -40.849600 0.000000 0.000000 30.713700 -9.145240 0.000000 -7.650400 0.000000 0.000000 7.125020
-0.019664 15.673100 3.631990 -4.664710 -13.684900 8.774700 -15.257700 -11.283800 -9.619880 0.000000 0.000000 27.382500 26.563600 0.000000 -24.157000 0.000000 0.000000 3.919250 19.485600 11.126900 -12.999900 0.000000 0.000000 23.391500 -17.950600 0.000000 -14.729800 0.000000 0.000000 -0.361407 5.247030 -1.046080 -5.610350 0.771659 -1.532480 -7.481660 -2.149050 -1.029940 -4.757370 -0.657509 -5.026930 -10.722100 -1.748240 -3.480270 12.038900 -0.000000 -0.000000 0.000000 67.092900 17.404600 -49.979100 0.000000 0.000000 32.985800 12.207700 0.000000 -3.811020 0.000000 0.000000 7.125020 -0.000000 -0.000000 0.000000 -70.798500 -9.765980 -40.844900 0.000000 0.000000 30.479500 -8.800260 0.000000 -8.818280 0.000000 0.000000 7.125020
-0.017242 15.673300 3.631020 -4.654190 -13.664400 8.783630 -15.268800 -11.279100 -9.652230 0.000000 0.000000 27.393400 26.541600 0.000000 -24.147100 0.000000 0.000000 3.930060 19.481400 11.048200 -13.036400 0.000000 0.000000 23.379500 -17.991500 0.000000 -14.568400 0.000000 0.000000 -0.955566 5.248340 -1.045130 -5.605440 0.758849 -1.531520 -7.471740 -2.163180 -1.029500 -4.749930 -0.653558 -5.031990 -10.713200 -1.739850 -3.484110 12.042800 -0.000000 -0.000000 0.000000 67.007600 17.510100 -49.972200 0.000000 0.000000 32.944900 12.584900 0.000000 -3.836400 0.000000 0.000000 7.125020 -0.000000 -0.000000 0.000000 -70.388300 -10.345300 -40.844300 0.000000 0.000000 30.205300 -8.316800 0.000000 -9.667690 0.000000 0.000000 7.125020
-0.014851 15.673500 3.629970 -4.645130 -13.645000 8.790270 -15.279100 -11.274600 -9.678730 0.000000 0.000000 27.398400 26.522800 0.000000 -24.134200 0.000000 0.000000 3.937230 19.477200 10.978500 -13.069600 0.000000 0.000000 23.372000 -18.027500 0.000000 -14.427600 0.000000 0.000000 -1.480110 5.248780 -1.042950 -5.595450 0.746935 -1.528520 -7.462660 -2.175730 -1.028060 -4.746020 -0.648011 -5.038220 -10.697900 -1.731930 -3.488700 12.042500 -0.000000 -0.000000 0.000000 66.972400 17.582300 -49.943800 0.000000 0.000000 32.914000 13.081200 0.000000 -3.934060 0.000000 0.000000 7.125020 -0.000000 -0.000000 0.000000 -69.872100 -11.063200 -40.852800 0.000000 0.000000 29.902400 -7.748790 0.000000 -10.289900 0.000000 0.000000 7.125020
-0.012520 15.673700 3.628780 -4.636890 -13.626000 8.795840 -15.288500 -11.267500 -9.704090 0.000000 0.000000 27.402700 26.503500 0.000000 -24.119300 0.000000 0.000000 3.936440 19.469400 10.935800 -13.093300 0.000000 0.000000 23.362100 -18.060700 0.000000 -14.327200 0.000000 0.000000 -1.834380 5.245690 -1.041530 -5.581090 0.737995 -1.526040 -7.455110 -2.183080 -1.026730 -4.745990 -0.644606 -5.044540 -10.680400 -1.723390 -3.493420 12.041600 0.000000 0.000000 0.000000 66.979900 17.628200 -49.900900 0.000000 0.000000 32.894900 13.655400 0.000000 -4.107790 0.000000 0.000000 7.125020 0.000000 0.000000 0.000000 -69.309800 -11.831400 -40.865200 0.000000 0.000000 29.582800 -7.139690 0.000000 -10.703100 0.000000 0.000000 7.125020
